<?xml version="1.0" encoding="UTF-8"?>
<svg xmlns="http://www.w3.org/2000/svg" xmlns:xlink="http://www.w3.org/1999/xlink" width="144px" height="20px" viewBox="0 0 144 20">
  <!-- Generator: Sketch 61.2 (89653) - https://sketch.com -->
  <title>Ben&amp;Jerry's-Black</title>
  <desc>Created with Sketch.</desc>
  <g id="Page-1" stroke="none" stroke-width="1" fill="none" fill-rule="evenodd">
    <g id="Desktop-HD" transform="translate(-380.000000, -294.000000)" fill="#121118">
      <path d="M521.963388,309.91776 C523.089451,309.91776 524,310.833302 524,311.953494 C524,313.084458 523.089451,314 521.963388,314 C520.831938,314 519.916001,313.084458 519.916001,311.953494 C519.916001,310.833302 520.831938,309.91776 521.963388,309.91776 Z M445.60123,296.536844 C446.476219,296.730723 449.372733,296.763037 449.997725,296.666097 C450.651811,296.695179 451.157192,296.56054 451.808046,296.536844 C452.369461,296.56054 453.042944,297.032314 453.101133,297.570868 C453.042944,298.109422 453.077426,300.330419 453.101133,300.931446 C453.076349,301.610024 452.167955,301.508776 451.808046,301.706964 C451.561282,301.845911 451.662574,302.013939 451.678737,302.611735 C451.662574,303.091048 451.594687,305.042768 451.678737,308.945131 C451.729383,312.785022 444.894342,315.848318 441.980587,312.564215 C439.101314,309.318888 440.549571,306.053095 441.851278,305.196794 C443.109883,304.236014 445.298432,304.572072 445.859847,305.326047 C446.308117,306.119876 446.3426,308.004816 445.60123,308.428119 C446.611993,309.014066 446.813499,307.331623 446.76393,307.006336 C446.745612,306.65843 446.745612,305.514541 446.893239,304.809035 C446.947118,304.168156 446.880308,302.821771 446.893239,302.482482 C446.880308,302.215359 446.91479,301.946082 446.377082,301.96547 C445.904028,302.013939 444.591545,301.913768 443.790908,301.96547 C443.108805,301.980549 442.974109,301.407527 443.015056,300.802193 C442.975186,300.263639 442.806007,298.244061 442.756439,297.700121 C442.73812,297.23481 442.839412,296.865362 443.144365,296.666097 C443.512895,296.595008 444.726241,296.460369 445.60123,296.536844 Z M431.895588,297.182032 C431.895588,297.182032 431.896666,297.267123 432.024897,296.923526 C432.232868,296.595008 432.435452,296.627321 432.800749,296.66502 C433.242554,296.695179 434.050733,296.627321 434.352453,296.53469 C434.725293,296.559463 434.926799,296.526073 434.869688,296.922449 C434.893394,297.299437 434.893394,297.904771 434.869688,298.344232 C434.894472,298.848318 434.625079,299.656149 434.740379,300.153773 C434.758698,300.733258 434.961281,301.271812 434.61107,301.31705 C434.287799,301.271812 433.883709,301.203954 433.447292,301.31705 C432.940833,301.338593 432.536744,301.271812 431.636971,301.31705 C431.392362,300.530761 430.650992,299.184376 429.697341,300.153773 C428.765241,301.203954 430.381599,301.810366 431.249045,302.092568 C431.249045,302.092568 431.256588,302.415701 431.119736,302.868086 C430.852498,303.223532 430.717802,303.695305 430.214575,304.548375 C427.418275,305.108471 427.687668,307.599823 428.79218,308.813724 C429.97751,310.023316 432.065845,309.619401 432.67144,308.555218 C433.278113,307.599823 432.940833,306.92663 432.024897,307.005259 C431.189778,307.061269 430.785689,307.734461 430.861119,308.039283 C431.055082,308.408731 431.055082,308.879427 430.602501,308.814801 C429.034634,308.61015 428.765241,306.793069 429.568032,305.32497 C430.381599,303.96566 432.806137,303.96566 433.70591,304.03244 C434.557192,304.100298 435.904157,303.897802 436.29209,303.127669 C434.086293,302.013939 435.972044,299.522588 437.455861,299.509663 C438.935368,299.38795 440.147637,300.127923 440.171343,302.093645 C440.281256,304.03244 439.203683,305.850599 437.58517,306.358994 C438.732784,312.783945 432.199464,313.726415 430.602501,313.855745 C429.101443,313.861053 425.499119,313.591776 424.137068,311.658367 C420.8203,306.87816 424.521761,302.955332 425.818081,302.093645 C425.499119,301.878224 424.723267,299.623836 425.688772,298.216056 C426.676906,296.728569 428.394556,296.52715 429.568032,296.535767 C430.684397,296.459292 431.257665,296.694102 431.895588,297.182032 Z M513.7469,296.666097 C514.733956,296.528227 515.980707,296.964456 516.591691,297.183109 C516.754404,296.865362 516.990392,296.696256 517.238234,296.666097 C517.597066,296.763037 518.876144,296.696256 519.177864,296.666097 C519.549627,296.696256 519.852424,296.932143 519.824407,297.570868 C519.784537,298.14389 519.717728,301.240576 519.695099,301.836217 C519.717728,302.317684 519.549627,302.417855 519.177864,302.353229 C518.876144,302.349997 517.562583,302.452322 517.108925,302.482482 C516.754404,302.519103 516.551821,302.317684 516.462382,301.96547 C516.182213,300.768802 514.868653,300.499525 514.522752,300.931446 C514.261979,301.307356 514.261979,301.677882 514.910678,302.223976 C515.676832,302.889628 516.923583,303.024267 518.789938,305.067541 C520.694008,307.063423 520.155222,310.833302 518.919247,312.564215 C517.663875,314.199265 515.339552,313.82874 514.652061,313.727492 C514.060473,313.694101 513.017383,313.188937 512.841739,313.081227 C512.612216,312.91966 512.645621,312.785022 512.453813,313.21048 C512.174722,313.524995 511.905329,313.491605 511.548652,313.468986 C511.299733,313.424824 509.818071,313.491605 509.350405,313.468986 C508.874118,313.424824 508.706017,313.18786 508.703862,312.821644 C508.706017,312.44681 508.739422,309.956536 508.703862,309.461066 C508.739422,309.014066 508.639207,307.6009 508.574553,307.134512 C508.639207,306.590572 509.412904,306.62504 509.86764,306.746753 C510.423667,306.759678 511.501239,306.691821 511.936578,306.6175 C512.291888,306.622719 512.578492,306.909678 512.583122,307.264842 C512.645621,307.668758 512.645621,306.895394 512.841739,308.04036 C513.117598,309.25103 514.565855,309.015143 514.781369,308.815878 C515.104641,308.54337 515.17145,307.837864 514.652061,307.394095 C514.093878,306.827536 513.588497,306.322372 511.419344,304.938288 C509.143511,303.428183 509.750184,299.725084 510.384874,298.604892 C511.03034,297.504087 512.646699,296.730723 513.7469,296.666097 Z M521.963388,310.187037 C520.966634,310.187037 520.239273,310.962555 520.239273,311.953494 C520.239273,312.955205 520.966634,313.730723 521.963388,313.730723 C522.955832,313.730723 523.676728,312.955205 523.676728,311.953494 C523.676728,310.962555 522.954755,310.187037 521.963388,310.187037 Z M388.18818,296.66502 C394.044785,296.695179 393.809874,303.02319 392.584674,304.420199 C394.618053,305.346512 395.09003,307.432871 394.782922,309.590319 C394.34866,311.741304 391.722617,313.491605 390.774353,313.597162 C389.768978,313.693024 387.243149,313.659634 386.119241,313.597162 C384.953308,313.658557 382.360669,313.793195 381.076203,313.467909 C379.802512,313.18786 380.004018,311.976114 380.041733,311.529114 C380.004018,311.101502 379.970613,310.225813 380.041733,309.331813 C380.037676,308.588735 380.634018,308.397136 381.224351,308.42027 L381.33482,308.427042 L381.981363,308.427042 L381.981363,302.222898 L381.96116,302.22203 C381.912239,302.220292 381.768363,302.217034 381.464129,302.222898 C380.980299,302.214282 380.474917,301.979472 380.429659,301.44738 C380.474917,300.970222 380.474917,299.085282 380.429659,298.086803 C380.472089,297.19314 380.859257,296.751988 381.468635,296.675485 L381.593437,296.66502 L388.18818,296.66502 Z M405.128693,296.66502 C406.068336,296.694102 406.27092,297.267123 406.292471,297.699044 C406.27092,298.209593 406.337729,298.950644 406.292471,299.767092 C406.337729,300.700944 406.27092,301.979472 406.292471,302.481404 C406.20411,302.921942 405.294639,302.820694 404.870076,302.73991 C404.485382,302.753913 403.981079,302.888551 403.189063,302.869163 C402.297911,302.955332 402.330238,302.147501 402.413211,301.705886 C402.464934,301.272889 402.128732,301.272889 401.895976,301.318128 C401.588868,301.33967 401.353957,301.374137 401.249433,301.576633 C401.20202,301.830831 401.219261,303.191219 401.249433,303.515428 C401.219261,303.864411 401.420767,303.897802 401.76559,303.903187 C402.026363,303.897802 402.194464,303.796554 402.541442,303.773934 C402.935834,303.728696 403.171822,303.796554 403.187985,304.289869 C403.171779,304.936033 403.171779,305.582501 403.187985,306.228664 C403.171822,306.858772 403.07053,307.162517 402.800059,307.133435 C402.531744,307.229298 402.296833,307.195907 401.894899,307.262688 C401.589407,307.262688 401.558858,307.344699 401.520453,307.569968 L401.506973,307.650447 L401.636281,309.330736 L402.670751,309.330736 C402.670751,309.330736 402.598553,309.147627 402.541442,308.555218 C402.531744,308.070519 402.970316,307.83571 403.446603,307.908953 C403.845305,307.90249 405.360371,307.83571 405.903468,307.7797 C406.371134,307.83571 406.640527,307.970348 406.551089,308.684471 C406.573718,309.383514 406.640527,311.941646 406.680397,312.432808 C406.641605,313.018754 406.405616,313.45606 405.904545,313.466831 C405.462741,313.45606 403.644876,313.42267 402.930446,313.466831 C402.230024,313.490528 399.300105,313.658557 398.533951,313.596084 C397.885252,313.45606 396.707466,313.557309 395.947777,313.596084 C395.225804,313.558386 394.956411,313.254641 394.913308,312.820566 C394.956411,312.312171 395.157917,310.325984 395.042617,309.718495 C395.02322,309.182095 395.360501,308.676931 395.818469,308.684471 C396.236567,308.676931 396.471478,308.508902 396.465012,308.168536 C396.471478,307.802319 396.471478,307.836787 396.465012,306.876006 C396.538287,305.885066 396.438073,303.932269 396.594321,303.127669 C396.707466,302.451245 396.471478,302.115188 395.947777,302.093645 C395.326018,302.04733 394.989816,301.575556 395.042617,301.059622 C395.056625,300.498448 395.02322,297.940316 395.042617,297.440538 C394.956411,297.065704 395.292613,296.695179 395.68916,296.66502 C395.999501,296.695179 398.760241,296.729646 399.309803,296.66502 C399.771004,296.729646 404.318359,296.695179 405.128693,296.66502 Z M463.574058,296.66502 C464.423185,296.694102 464.625768,297.267123 464.608527,297.699044 C464.625768,298.209593 464.693655,298.950644 464.737836,299.767092 C464.693655,300.700944 464.625768,301.979472 464.608527,302.481404 C464.557881,302.921942 463.649488,302.820694 463.186132,302.73991 C462.841309,302.753913 462.335927,302.888551 461.505119,302.869163 C460.652759,302.955332 460.686164,302.147501 460.729267,301.705886 C460.820861,301.272889 460.48358,301.272889 460.212032,301.318128 C459.944794,301.33967 459.708806,301.374137 459.694797,301.576633 C459.556868,301.830831 459.574109,303.191219 459.565489,303.515428 C459.574109,303.864411 459.776693,303.897802 460.082724,303.903187 C460.383366,303.897802 460.551467,303.796554 460.858576,303.773934 C461.292837,303.728696 461.528825,303.796554 461.506196,304.289869 C461.528825,304.671165 461.528825,305.713806 461.506196,306.228664 C461.528825,306.858772 461.428611,307.162517 461.11827,307.133435 C460.888748,307.229298 460.653837,307.195907 460.342418,307.262688 C459.951554,307.262688 459.91602,307.346364 459.847213,307.576838 L459.825184,307.650447 L459.954492,309.330736 L460.988962,309.330736 C460.988962,309.330736 460.956635,309.147627 460.859653,308.555218 C460.889825,308.070519 461.326242,307.83571 461.764814,307.908953 C462.202308,307.90249 463.718452,307.83571 464.221679,307.7797 C464.728138,307.83571 464.997531,307.970348 464.997531,308.684471 C464.930721,309.383514 464.997531,311.941646 464.997531,312.432808 C464.997531,313.018754 464.761542,313.45606 464.350987,313.466831 C463.818667,313.45606 461.999725,313.42267 461.247579,313.466831 C460.58595,313.490528 457.656031,313.658557 456.980393,313.596084 C456.242256,313.45606 455.063392,313.557309 454.264911,313.596084 C453.58173,313.558386 453.312337,313.254641 453.35975,312.820566 C453.312337,312.312171 453.513843,310.325984 453.489059,309.718495 C453.380224,309.182095 453.716427,308.676931 454.135602,308.684471 C454.592493,308.676931 454.827404,308.508902 454.782146,308.168536 C454.827404,307.802319 454.827404,307.836787 454.911454,306.876006 C454.895291,305.885066 454.793999,303.932269 454.911454,303.127669 C455.063392,302.451245 454.827404,302.115188 454.264911,302.093645 C453.683022,302.04733 453.346819,301.575556 453.35975,301.059622 C453.413629,300.498448 453.381302,297.940316 453.35975,297.440538 C453.312337,297.065704 453.64854,296.695179 454.135602,296.66502 C454.356504,296.695179 457.118322,296.729646 457.624781,296.66502 C458.12693,296.729646 462.673207,296.695179 463.574058,296.66502 Z M412.293878,297.090056 L412.372134,297.184186 L416.122085,303.259077 L416.122085,301.449535 C415.903338,301.308434 415.60054,301.173795 414.958307,301.061776 C414.893653,300.735412 414.826844,300.164545 414.828999,299.769246 C414.826844,299.491352 414.657665,298.683521 414.570381,298.347463 C414.455081,297.94247 414.724474,297.166952 414.958307,296.666097 C415.465844,296.730723 420.8203,296.696256 421.423741,296.666097 C422.100456,296.696256 421.897873,297.87569 421.811667,298.347463 C421.763175,299.03596 421.763175,299.727014 421.811667,300.415511 C421.827369,300.86328 421.829612,301.273856 421.736966,301.651309 L421.682358,301.837294 L421.034737,301.837294 C420.515347,301.880378 420.415133,302.284294 420.388194,302.742065 C420.481943,303.293544 420.415133,304.674397 420.388194,305.197871 C420.415133,305.751505 420.415133,306.627194 420.258885,307.395172 C420.213627,308.04036 420.684526,308.07375 421.164046,308.041437 C421.660807,308.00697 421.795503,308.713553 421.810589,309.333967 C421.727616,309.9253 421.795503,311.843629 421.810589,312.565292 C421.795503,313.391434 421.324604,313.492682 421.034737,313.470063 C420.731705,313.556606 418.839391,313.467733 417.241991,313.469268 L417.026168,313.470063 L412.888291,306.360071 C412.888291,306.360071 412.80424,307.972502 412.758982,308.298866 C412.80424,308.511056 413.006824,308.679085 413.276217,308.686625 C413.61242,308.813724 413.9497,309.117468 413.92276,309.591396 C413.9497,310.058861 413.983104,312.515745 414.052069,312.951974 C414.049914,313.390357 413.815003,313.559463 413.276217,313.468986 C412.80424,313.492682 408.831231,313.526072 407.974561,313.598239 C407.214873,313.592853 407.214873,313.391434 407.198709,312.822721 L407.198013,312.701383 C407.194841,312.131869 407.182589,309.734781 407.198709,309.33289 C407.180391,308.981753 407.281682,308.611227 407.715944,308.686625 C408.224558,308.679085 408.256885,308.173921 408.232101,307.781854 C408.224558,307.130204 408.256885,303.73085 408.36141,302.87024 C408.459469,302.116265 407.819391,302.116265 407.585558,302.094723 C407.348492,302.115188 407.045694,302.183045 407.068323,301.836217 C407.044617,301.374137 407.146986,297.604258 407.197632,297.312362 C407.145908,296.931066 407.280605,296.695179 407.714867,296.66502 C408.088784,296.76196 410.378625,296.76196 410.821507,296.667174 C411.286024,296.508094 411.952537,296.7253 412.293878,297.090056 Z M497.584393,296.536844 C498.16736,296.49376 498.403348,297.233733 498.360246,297.700121 C498.268652,298.176203 498.268652,298.817082 498.230937,299.251157 C498.133955,299.759552 498.166283,300.364887 498.230937,300.931446 C498.16736,301.375214 497.83008,301.407527 497.455085,301.448458 L497.455085,301.448458 L498.488477,303.512197 L499.652255,301.314896 C499.075754,301.336438 498.974462,301.133942 499.005711,300.927137 C498.974462,300.596465 499.007866,300.393969 499.005711,299.893113 C499.075754,299.51828 499.041271,298.678135 499.005711,298.212824 C499.041271,297.870304 499.007866,297.466388 499.13502,297.178801 C499.21045,296.793196 499.984147,296.62409 500.428107,296.661789 C500.860213,296.62409 501.600505,296.758728 502.238428,296.791042 C502.947471,296.826586 503.992716,296.726415 504.307367,296.661789 C504.598311,296.658557 504.833222,296.859976 504.824602,297.178801 C504.833222,297.533169 504.800895,298.172971 504.824602,298.600583 C504.935591,298.980803 504.901109,299.384718 504.824602,299.893113 C504.833222,300.327188 504.765335,301.269658 504.695293,302.090414 C504.396805,302.111956 504.059525,302.14427 503.660823,302.090414 C503.386043,302.145347 503.082167,302.381233 502.755663,302.737756 C502.408685,303.189065 500.860213,305.612558 500.428107,306.098334 C500.456124,306.622886 500.153326,307.834632 500.169489,308.295635 C500.153326,308.642464 500.354832,308.877273 500.686724,308.9419 C501.096201,308.944054 501.061719,308.877273 501.462576,308.9419 C501.500291,309.011912 501.465809,309.214408 501.462576,309.588165 C501.500291,310.123487 501.500291,311.73915 501.462576,312.432808 C501.500291,313.153393 501.129606,313.42267 500.686724,313.337578 C500.254618,313.354812 498.099473,313.522841 497.583316,313.466831 C497.020823,313.522841 495.673858,313.45606 495.126451,313.466831 C494.461589,313.45606 494.630768,312.951974 494.479908,312.56206 C494.361375,312.278781 494.429262,311.301844 494.479908,310.881772 C494.496071,310.494013 494.563958,309.754039 494.609216,309.330736 C494.562881,308.87835 494.933566,308.979598 495.25576,308.942977 C495.539161,308.979598 495.573644,308.710321 495.643686,308.296712 C495.641531,307.83571 495.506834,306.386999 495.514377,305.711652 C495.404465,305.445606 495.034858,304.704556 494.738525,304.289869 C494.428184,303.896725 493.855993,302.786226 493.704056,302.480327 C493.451904,302.046253 493.35169,302.113033 492.928204,302.221821 C492.54351,302.248749 492.441141,302.079643 492.28166,301.705886 C492.239635,301.33967 492.20623,300.531838 492.152352,300.154851 C492.139421,299.791865 492.20623,298.916176 492.152352,298.603815 C492.20623,298.175126 492.172826,297.604258 492.152352,297.182032 C492.171748,296.864285 492.509028,296.695179 492.928204,296.66502 C493.317207,296.729646 494.496071,296.76196 494.999298,296.79535 C495.440025,296.829817 496.888282,296.695179 497.584393,296.536844 Z M479.997337,296.535767 C480.286126,296.52715 480.690216,296.56054 481.161115,296.53469 C481.565204,296.559463 483.012384,296.559463 483.747288,296.663943 C484.561933,296.694102 485.000505,296.660711 485.945535,296.663943 C491.700849,297.333904 492.239635,301.069316 492.28166,302.480327 C492.239635,303.963505 491.363569,305.681493 490.471339,306.228664 C490.523062,306.489324 490.859265,306.89324 491.117882,307.262688 C491.331242,307.566432 491.767658,308.374264 491.893734,308.813724 C492.037051,309.182095 492.575838,308.945131 492.928204,308.942977 C493.317207,308.945131 493.518713,308.979598 493.574747,309.459989 C493.518713,309.855287 493.518713,310.124565 493.445438,310.623266 C493.468117,311.313739 493.511239,312.003391 493.574747,312.691313 C493.5866,313.321422 493.384017,313.557309 493.057512,313.466831 C492.710534,313.489451 492.171748,313.489451 491.635117,313.466831 C491.162063,313.489451 489.881907,313.489451 489.43687,313.466831 C488.872222,313.489451 488.569424,313.220174 488.4024,312.819489 C488.165334,312.412342 486.446607,308.441044 486.333461,308.167459 C486.245101,307.83571 485.94338,307.83571 485.428301,307.908953 C485.428301,307.908953 485.436921,308.374264 485.428301,308.684471 C485.436921,309.046379 485.942303,309.181018 486.204153,309.201483 C486.414279,309.248876 486.548976,309.451372 486.46277,309.977001 C486.481089,310.461699 486.548976,312.346639 486.592079,312.820566 C486.548976,313.355889 486.312988,313.523918 485.816227,313.467909 C485.436921,313.457137 480.991936,313.457137 480.514571,313.467909 C479.914363,313.457137 479.779667,313.15447 479.738719,312.692391 C479.779667,312.279858 479.746262,309.755116 479.738719,309.331813 C479.74734,308.947285 479.948846,308.812647 480.385263,308.814801 C480.757025,308.81157 480.858317,308.273015 480.773189,307.91003 C480.79043,307.466261 480.823834,305.885066 480.773189,305.32497 C480.757025,304.806881 480.823834,302.855161 480.773189,302.610657 C480.824912,302.249826 480.722543,302.115188 480.514571,302.093645 C480.514571,302.093645 480.521037,302.181968 479.738719,302.093645 C479.039375,302.114111 479.275363,301.374137 479.221485,301.059622 C479.140667,300.768802 479.174071,300.3972 479.221485,299.896345 C479.376655,299.522588 479.275363,298.984034 479.221485,298.603815 C479.275369,298.088206 479.275369,297.568388 479.221485,297.052779 C479.275363,296.627321 479.646048,296.459292 479.997337,296.535767 Z M465.903769,296.535767 C466.14299,296.52715 466.54708,296.56054 466.940393,296.53469 C467.425301,296.559463 468.87248,296.559463 469.655876,296.663943 C470.422029,296.694102 470.860601,296.660711 471.724814,296.663943 C477.560946,297.333904 478.099732,301.069316 478.060939,302.480327 C478.099732,303.963505 477.224743,305.681493 476.250618,306.228664 C476.382082,306.489324 476.719362,306.89324 476.897161,307.262688 C477.191338,307.566432 477.628833,308.374264 477.802322,308.813724 C477.897148,309.182095 478.437012,308.945131 478.836791,308.942977 C479.176226,308.945131 479.377732,308.979598 479.352948,309.459989 C479.377844,309.847348 479.377844,310.235906 479.352948,310.623266 C479.310923,310.999176 479.377732,312.176456 479.352948,312.691313 C479.44562,313.321422 479.244114,313.557309 478.965022,313.466831 C478.569553,313.489451 478.031845,313.489451 477.542627,313.466831 C477.021082,313.489451 475.740926,313.489451 475.215071,313.466831 C474.731241,313.489451 474.428443,313.220174 474.180601,312.819489 C474.024353,312.412342 472.306703,308.441044 472.240971,308.167459 C472.10412,307.83571 471.802399,307.83571 471.335811,307.908953 C471.335811,307.908953 471.29594,308.374264 471.335811,308.684471 C471.29594,309.046379 471.802399,309.181018 471.982354,309.201483 C472.273299,309.248876 472.407995,309.451372 472.37028,309.977001 C472.340108,310.461699 472.407995,312.346639 472.37028,312.820566 C472.406918,313.355889 472.170929,313.523918 471.722659,313.467909 C471.29594,313.457137 466.850955,313.457137 466.291695,313.467909 C465.772305,313.457137 465.637609,313.15447 465.645152,312.692391 C465.637609,312.279858 465.604204,309.755116 465.645152,309.331813 C465.604204,308.947285 465.806787,308.812647 466.162386,308.814801 C466.614967,308.81157 466.716258,308.273015 466.679621,307.91003 C466.648371,307.466261 466.681776,305.885066 466.679621,305.32497 C466.614967,304.806881 466.681776,302.855161 466.679621,302.610657 C466.682854,302.249826 466.581562,302.115188 466.291695,302.093645 C466.291695,302.093645 466.378978,302.181968 465.645152,302.093645 C464.897316,302.114111 465.133305,301.374137 465.127917,301.059622 C464.998608,300.768802 465.032013,300.3972 465.127917,299.896345 C465.133305,298.982957 465.133305,298.175126 465.127917,297.052779 C465.133305,296.627321 465.50399,296.459292 465.903769,296.535767 Z M522.200454,310.817145 C522.803895,310.817145 523.008634,311.043338 523.008634,311.420326 C523.008634,311.867326 522.696138,312.034277 522.292048,312.045049 L522.292048,312.045049 L522.981694,313.095229 L522.647647,313.095229 L521.995716,312.045049 L521.483869,312.045049 L521.483869,313.095229 L521.2037,313.095229 L521.2037,310.817145 Z M522.1358,311.01641 L521.483869,311.01641 L521.483869,311.824241 L521.986504,311.824938 C522.302919,311.829468 522.706913,311.842469 522.706913,311.41494 C522.706913,311.059494 522.415969,311.01641 522.1358,311.01641 L522.1358,311.01641 Z M387.413405,307.005259 C387.076125,306.994488 386.974833,307.129126 387.025479,307.522271 L387.025479,308.685548 C386.974833,309.148704 387.244226,309.148704 387.542714,309.20256 C387.850899,309.148704 389.096573,309.047456 389.094421,308.039283 C389.096573,307.129126 388.019001,307.028955 387.413405,307.005259 Z M471.59335,301.706964 C471.665548,302.316607 471.632143,302.552494 471.59335,302.999493 C471.565334,303.360325 471.632143,303.629602 471.59335,303.775011 C472.237739,303.898879 473.48449,303.73085 473.532981,302.740988 C473.551299,301.778053 472.237739,301.711272 471.59335,301.706964 Z M485.816227,301.706964 C485.821164,302.141265 485.777795,302.574769 485.686918,302.999493 C485.707392,303.360325 485.774201,303.629602 485.816227,303.775011 C486.379797,303.898879 487.626548,303.73085 487.626548,302.740988 C487.694435,301.778053 486.380875,301.711272 485.816227,301.706964 Z M386.765784,302.093645 L386.765784,302.869163 C386.738845,303.259077 387.008238,303.259077 387.283019,303.256922 C387.614911,303.259077 388.893989,303.157828 388.834723,302.481404 C388.82718,301.675727 387.781935,301.643414 387.15371,301.705886 C386.840137,301.608947 386.738845,301.743585 386.765784,302.093645 Z M505.859071,294.338466 C506.618759,293.733131 508.9086,293.93455 509.479714,294.984731 C510.120869,296.088767 510.187679,297.636572 509.996948,298.216056 C509.783589,298.849395 509.244803,299.45473 508.962479,300.154851 C508.706017,300.801116 507.426939,301.272889 506.634923,301.318128 C505.945277,301.271812 505.878467,300.531838 506.376306,300.284104 C506.821343,300.127923 506.888152,299.791865 507.410775,299.120827 C506.956039,298.984034 507.090736,298.781538 506.246997,298.603815 C505.338604,298.377622 505.06921,297.233733 504.95391,296.406514 C504.800895,295.618071 505.406491,294.810239 505.859071,294.338466 Z" id="Ben&amp;Jerry's-Black"></path>
    </g>
  </g>
</svg>
