<?xml version="1.0" encoding="UTF-8"?><svg width="20px" height="13px" viewBox="0 0 20 13" version="1.1" xmlns="http://www.w3.org/2000/svg" xmlns:xlink="http://www.w3.org/1999/xlink">        <title>Combined Shape</title>    <desc>Created with Sketch.</desc>    <g id="Page-1" stroke="none" stroke-width="1" fill="none" fill-rule="evenodd">        <g id="00-MME-Type-Style-Sheet" transform="translate(-951.000000, -3510.000000)" fill="#03EADA" fill-rule="nonzero">            <g id="CTA-text-link---Green" transform="translate(825.000000, 3504.000000)">                <path d="M143.189782,11.6609506 L139.504701,7.9188095 C139.184509,7.58382991 139.196497,7.05270847 139.531476,6.73251656 C139.866456,6.41232465 140.397577,6.42431243 140.717769,6.75929202 L145.762147,11.8991785 C146.077237,12.228821 146.071364,12.7497702 145.748921,13.0722244 L140.704543,18.2542378 C140.376879,18.5819127 139.845623,18.5819219 139.517948,18.2542584 C139.190273,17.926595 139.190264,17.3953383 139.517927,17.0676634 L143.135042,13.3390494 L126.835509,13.3390494 C126.372115,13.3390494 125.99646,12.9633942 125.99646,12.5 C125.99646,12.0366058 126.372115,11.6609506 126.835509,11.6609506 L143.189782,11.6609506 Z" id="Combined-Shape"></path>            </g>        </g>    </g></svg>