<?xml version="1.0" encoding="UTF-8"?>
<!-- Generator: Adobe Illustrator 22.1.0, SVG Export Plug-In . SVG Version: 6.00 Build 0)  -->
<svg xmlns="http://www.w3.org/2000/svg" xmlns:xlink="http://www.w3.org/1999/xlink" id="Layer_1" x="0px" y="0px" viewBox="0 0 259 55" style="enable-background:new 0 0 259 55;" xml:space="preserve">
<style type="text/css">
	.st0{fill:#121118;}
	.st1{fill:url(#SVGID_1_);}
</style>
<g>
	<path class="st0" d="M6,48.9h45.9c1.7,0,3,1.3,3,3s-1.3,3-3,3H3c-1.7,0-3-1.3-3-3V3.1c0-1.7,1.3-3,3-3s3,1.3,3,3V48.9z"></path>
	
		<linearGradient id="SVGID_1_" gradientUnits="userSpaceOnUse" x1="12.1484" y1="-22.7096" x2="54.9258" y2="-22.7096" gradientTransform="matrix(1 0 0 -1 0 1)">
		<stop offset="0" style="stop-color:#4100A3"></stop>
		<stop offset="1" style="stop-color:#F749A0"></stop>
	</linearGradient>
	<path class="st1" d="M17.4,35.7c-1.1,1.2-3.1,1.3-4.3,0.1c-1.2-1.1-1.3-3.1-0.1-4.3l11.4-12.2c1.1-1.2,2.9-1.3,4.2-0.2l9,7.7   l11.8-14.9c1-1.3,2.9-1.5,4.3-0.5c1.3,1,1.5,2.9,0.5,4.3L40.5,33c-1,1.3-3,1.5-4.4,0.4l-9.2-7.8L17.4,35.7z"></path>
</g>
</svg>
