<?xml version="1.0" encoding="UTF-8"?>
<!-- Generator: Adobe Illustrator 22.1.0, SVG Export Plug-In . SVG Version: 6.00 Build 0)  -->
<svg xmlns="http://www.w3.org/2000/svg" xmlns:xlink="http://www.w3.org/1999/xlink" id="Layer_1" x="0px" y="0px" viewBox="0 0 259 55" style="enable-background:new 0 0 259 55;" xml:space="preserve">
<style type="text/css">
	.st0{fill:#121118;}
	.st1{fill:url(#SVGID_1_);}
</style>
<g>
	<g>
		<path class="st0" d="M10,0C4.5,0,0,4.5,0,10s4.5,10,10,10s10-4.5,10-10S15.5,0,10,0z M10,15c-2.8,0-5-2.2-5-5s2.2-5,5-5s5,2.2,5,5    S12.7,15,10,15z"></path>
	</g>
	<g>
		<path class="st0" d="M40,0c-5.5,0-10,4.5-10,10s4.5,10,10,10s10-4.5,10-10S45.5,0,40,0z M40,15c-2.8,0-5-2.2-5-5s2.2-5,5-5    s5,2.2,5,5S42.7,15,40,15z"></path>
	</g>
	
		<linearGradient id="SVGID_1_" gradientUnits="userSpaceOnUse" x1="7.5" y1="-26.45" x2="42.5" y2="-26.45" gradientTransform="matrix(1 0 0 -1 0 1)">
		<stop offset="0" style="stop-color:#A131ED"></stop>
		<stop offset="1" style="stop-color:#4100A3"></stop>
	</linearGradient>
	<path class="st1" d="M40,20c-0.8,0-1.7-0.1-2.5-0.4V20c0,2.8-2.2,5-5,5h-20v-5c0-0.1,0-0.2-0.1-0.3C11.6,19.9,10.8,20,10,20   s-1.7-0.1-2.4-0.3c0,0.1-0.1,0.2-0.1,0.3v15c0,0.1,0,0.2,0.1,0.3C8.4,35.1,9.2,35,10,35c0.9,0,1.7,0.1,2.4,0.3   c0-0.1,0.1-0.2,0.1-0.3v-5h20c5.5,0,10-4.5,10-10v-0.4C41.7,19.9,40.8,20,40,20z"></path>
	<g>
		<path class="st0" d="M10,35C4.5,35,0,39.5,0,45s4.5,10,10,10s10-4.5,10-10S15.5,35,10,35z M10,50c-2.8,0-5-2.2-5-5s2.2-5,5-5    s5,2.2,5,5S12.7,50,10,50z"></path>
	</g>
</g>
</svg>
