<?xml version="1.0" encoding="UTF-8"?>
<!-- Generator: Adobe Illustrator 22.1.0, SVG Export Plug-In . SVG Version: 6.00 Build 0)  -->
<svg xmlns="http://www.w3.org/2000/svg" xmlns:xlink="http://www.w3.org/1999/xlink" id="Layer_1" x="0px" y="0px" viewBox="0 0 259 55" style="enable-background:new 0 0 259 55;" xml:space="preserve">
<style type="text/css">
	.st0{fill:none;}
	.st1{fill:url(#SVGID_1_);}
	.st2{fill:#FFFFFF;}
</style>
<g>
	<path class="st0" d="M5.3,24.5c-2.9,0-5.3,2.3-5.3,5.2v13c0,0.3,0,0.5,0.1,0.8V50c0,0.3,0.2,0.7,0.4,0.9s0.6,0.4,1,0.4l0,0   c0.3,0,0.7-0.1,0.9-0.3l3.2-3h20.6c2.9,0,5.2-2.3,5.2-5.2V29.7c0-2.9-2.4-5.2-5.2-5.2H5.3z"></path>
	
		<linearGradient id="SVGID_1_" gradientUnits="userSpaceOnUse" x1="0" y1="-36.9" x2="31.4" y2="-36.9" gradientTransform="matrix(1 0 0 -1 0 1)">
		<stop offset="0" style="stop-color:#6C11A2"></stop>
		<stop offset="1" style="stop-color:#F749A0"></stop>
	</linearGradient>
	<path class="st1" d="M5.3,24.5c-2.9,0-5.3,2.3-5.3,5.2v13c0,0.3,0,0.5,0.1,0.8V50c0,0.3,0.2,0.7,0.4,0.9s0.6,0.4,1,0.4l0,0   c0.3,0,0.7-0.1,0.9-0.3l3.2-3h20.6c2.9,0,5.2-2.3,5.2-5.2V29.7c0-2.9-2.4-5.2-5.2-5.2H5.3z"></path>
	<path class="st2" d="M18.4,38.8c0-0.7,0.6-1.3,1.3-1.3h5.2c0.7,0,1.3,0.6,1.3,1.3s-0.6,1.3-1.3,1.3h-5.2   C19,40.2,18.4,39.5,18.4,38.8z"></path>
	<path class="st2" d="M10.5,33.6c0-0.7,0.6-1.3,1.3-1.3h13.1c0.7,0,1.3,0.6,1.3,1.3s-0.6,1.3-1.3,1.3H11.8   C11.1,34.9,10.5,34.3,10.5,33.6z"></path>
	<path class="st2" d="M36.7,36.5V27c0-4.4-3.5-7.9-7.9-7.9H10.9V10c0-3.7,2.9-6.6,6.6-6.6h30.9c3.7,0,6.6,3,6.6,6.6v19.8V42   c0,0.7-0.6,1.3-1.3,1.3c-0.3,0-0.7-0.2-1-0.4l-6.5-6.5h-9.5V36.5z"></path>
</g>
</svg>
