<?xml version="1.0" encoding="UTF-8"?>
<!-- Generator: Adobe Illustrator 22.1.0, SVG Export Plug-In . SVG Version: 6.00 Build 0)  -->
<svg xmlns="http://www.w3.org/2000/svg" xmlns:xlink="http://www.w3.org/1999/xlink" id="Layer_1" x="0px" y="0px" viewBox="0 0 259 55" style="enable-background:new 0 0 259 55;" xml:space="preserve">
<style type="text/css">
	.st0{fill:#121118;}
	.st1{fill:url(#SVGID_1_);}
</style>
<g>
	<path class="st0" d="M32.2,26.4L19,0v22c0,0.2,0,0.5-0.1,0.7c1.7,1,2.9,2.8,2.9,4.8c0,3-2.5,5.5-5.5,5.5s-5.5-2.5-5.5-5.5   c0-2,1.1-3.9,2.9-4.8c0-0.2-0.1-0.5-0.1-0.7V0L0.3,26.4c-0.4,0.8-0.4,1.5-0.1,2.3L7.6,46c0.2,0.5,0.7,0.8,1.2,0.8h14.7   c0.5,0,1-0.3,1.2-0.8l7.4-17.3C32.6,28,32.6,27.1,32.2,26.4z"></path>
	
		<linearGradient id="SVGID_1_" gradientUnits="userSpaceOnUse" x1="8.054" y1="-51.25" x2="24.554" y2="-51.25" gradientTransform="matrix(1 0 0 -1 0 1)">
		<stop offset="0" style="stop-color:#4100A3"></stop>
		<stop offset="1" style="stop-color:#F749A0"></stop>
	</linearGradient>
	<path class="st1" d="M21.8,49.5h-11c-1.5,0-2.8,1.2-2.8,2.8V55h16.5v-2.8C24.5,50.8,23.3,49.5,21.8,49.5z"></path>
</g>
</svg>
