<?xml version="1.0" encoding="UTF-8"?>
<!-- Generator: Adobe Illustrator 22.1.0, SVG Export Plug-In . SVG Version: 6.00 Build 0)  -->
<svg xmlns="http://www.w3.org/2000/svg" xmlns:xlink="http://www.w3.org/1999/xlink" id="Layer_1" x="0px" y="0px" viewBox="0 0 259 55" style="enable-background:new 0 0 259 55;" xml:space="preserve">
<style type="text/css">
	.st0{fill:none;}
	.st1{fill:url(#SVGID_1_);}
	.st2{fill:#FFFFFF;}
</style>
<g>
	<path class="st0" d="M25.7,0C12.5,0,1.6,9.9,0,22.7l25.7,5.1C25.7,27.8,25.7,0,25.7,0z"></path>
	
		<linearGradient id="SVGID_1_" gradientUnits="userSpaceOnUse" x1="1.7476" y1="-24.727" x2="30.852" y2="-7.9236" gradientTransform="matrix(1 0 0 -1 0 1)">
		<stop offset="0" style="stop-color:#03EADA"></stop>
		<stop offset="1" style="stop-color:#3238B0"></stop>
	</linearGradient>
	<path class="st1" d="M25.7,0C12.5,0,1.6,9.9,0,22.7l25.7,5.1C25.7,27.8,25.7,0,25.7,0z"></path>
	<path class="st2" d="M3.1,29.7l29.1,5.8V3.4C44.9,5,54.8,15.9,54.8,29.1C54.8,43.4,43.2,55,28.9,55C14.9,55,3.4,43.7,3.1,29.7"></path>
</g>
</svg>
