<?xml version="1.0" encoding="UTF-8"?>
<!-- Generator: Adobe Illustrator 22.1.0, SVG Export Plug-In . SVG Version: 6.00 Build 0)  -->
<svg xmlns="http://www.w3.org/2000/svg" xmlns:xlink="http://www.w3.org/1999/xlink" id="Layer_1" x="0px" y="0px" viewBox="0 0 259 55" style="enable-background:new 0 0 259 55;" xml:space="preserve">
<style type="text/css">
	.st0{fill:#121118;}
	.st1{fill:url(#SVGID_1_);}
	.st2{fill:url(#SVGID_2_);}
</style>
<g>
	<path class="st0" d="M38.3,14c-0.2-0.2-0.4-0.4-0.6-0.6L21.9,0.8c-1.3-1.1-3.2-1.1-4.5,0L1.5,13.4c-1.6,1.3-1.8,3.5-0.6,5.1   c0.2,0.2,0.4,0.4,0.6,0.6l0.4,0.3l15.5,12.3c1.3,1.1,3.2,1.1,4.5,0l15.5-12.3l0.4-0.3C39.3,17.8,39.5,15.6,38.3,14z"></path>
	
		<linearGradient id="SVGID_1_" gradientUnits="userSpaceOnUse" x1="5.066519e-02" y1="-45.3782" x2="39.1873" y2="-45.3782" gradientTransform="matrix(1 0 0 -1 0 1)">
		<stop offset="0" style="stop-color:#4100A3"></stop>
		<stop offset="1" style="stop-color:#F749A0"></stop>
	</linearGradient>
	<path class="st1" d="M0.9,41.7l16.5,12.6c1.3,1,3.1,1,4.4,0l16.5-12.6c1-0.8,1.2-2.1,0.4-3.1l0,0c-0.8-1-2.1-1.2-3.1-0.4l0,0   l-13.9,11c-1.3,1.1-3.2,1.1-4.5,0l-13.7-11c-1-0.8-2.3-0.6-3.1,0.4l0,0C-0.2,39.5,0,40.9,0.9,41.7L0.9,41.7z"></path>
	
		<linearGradient id="SVGID_2_" gradientUnits="userSpaceOnUse" x1="8.873696e-02" y1="-34.0782" x2="39.1656" y2="-34.0782" gradientTransform="matrix(1 0 0 -1 0 1)">
		<stop offset="0" style="stop-color:#4100A3"></stop>
		<stop offset="1" style="stop-color:#F749A0"></stop>
	</linearGradient>
	<path class="st2" d="M38.7,27.3c-0.8-1-2.1-1.2-3.1-0.4l0,0l-13.9,11c-1.3,1.1-3.2,1.1-4.5,0L3.6,27c-1-0.8-2.3-0.6-3.1,0.4l0,0   c-0.8,1-0.6,2.4,0.4,3.1l0,0L17.5,43c1.3,1,3.1,1,4.4,0l16.5-12.6C39.3,29.7,39.5,28.3,38.7,27.3L38.7,27.3z"></path>
</g>
</svg>
