<?xml version="1.0" encoding="UTF-8"?>
<!-- Generator: Adobe Illustrator 22.1.0, SVG Export Plug-In . SVG Version: 6.00 Build 0)  -->
<svg xmlns="http://www.w3.org/2000/svg" xmlns:xlink="http://www.w3.org/1999/xlink" id="Layer_1" x="0px" y="0px" viewBox="0 0 259 55" style="enable-background:new 0 0 259 55;" xml:space="preserve">
<style type="text/css">
	.st0{fill:url(#SVGID_1_);}
	.st1{fill:#121118;}
</style>
<g>
	
		<linearGradient id="SVGID_1_" gradientUnits="userSpaceOnUse" x1="10.3058" y1="-20.1" x2="40.7058" y2="-20.1" gradientTransform="matrix(1 0 0 -1 0 1)">
		<stop offset="0" style="stop-color:#A131ED"></stop>
		<stop offset="1" style="stop-color:#4100A3"></stop>
	</linearGradient>
	<path class="st0" d="M25.5,5.9c8.4,0,15.2,6.8,15.2,15.2s-6.8,15.2-15.2,15.2s-15.2-6.8-15.2-15.2S17.1,5.9,25.5,5.9"></path>
	<path class="st1" d="M51,21.1c0-8.2-4-15.8-10.5-20.6c-1.3-1-3.2-0.6-4.1,0.9c-0.7,1.2-0.3,2.8,0.8,3.7c5.8,4.3,9,11.5,7.8,19   c-1.3,8.5-8.2,15.3-16.8,16.5c-7,0.9-13.8-1.8-18.1-7.1C9,32.2,7,32.1,5.8,33.3l-5.1,5.5c-1.1,1.2-0.9,3.3,0.5,4.3   c1.2,0.7,2.7,0.4,3.7-0.6l2.9-3.1c4,3.8,9.1,6.2,14.7,6.8v3h-2.8c-2.1,0-4,1.2-5,3C14.2,53.5,15,55,16.4,55h18.1   c1.3,0,2.2-1.4,1.5-2.6c-0.9-1.7-2.8-3-5-3h-2.8v-3C41.1,44.9,51,34.2,51,21.1z"></path>
</g>
</svg>
