<?xml version="1.0" encoding="UTF-8"?>
<!-- Generator: Adobe Illustrator 22.1.0, SVG Export Plug-In . SVG Version: 6.00 Build 0)  -->
<svg xmlns="http://www.w3.org/2000/svg" xmlns:xlink="http://www.w3.org/1999/xlink" id="Layer_1" x="0px" y="0px" viewBox="0 0 259 55" style="enable-background:new 0 0 259 55;" xml:space="preserve">
<style type="text/css">
	.st0{fill:url(#SVGID_1_);}
	.st1{fill:#121118;}
</style>
<g>
	
		<linearGradient id="SVGID_1_" gradientUnits="userSpaceOnUse" x1="44.8018" y1="-0.45" x2="44.8018" y2="-41" gradientTransform="matrix(1 0 0 -1 0 1)">
		<stop offset="0" style="stop-color:#0D52FF"></stop>
		<stop offset="1" style="stop-color:#4100A3"></stop>
	</linearGradient>
	<path class="st0" d="M44.8,1.4c-2.4,0-4.3,2-4.3,4.4v31.9c0,2.4,2,4.3,4.3,4.3c2.4,0,4.3-2,4.3-4.3V5.8C49.2,3.4,47.2,1.4,44.8,1.4   z"></path>
	<path class="st1" d="M30.4,15.9c-2.4,0-4.4,2-4.4,4.4v17.4c0,2.4,2,4.3,4.4,4.3s4.4-2,4.4-4.3V20.2C34.8,17.8,32.8,15.9,30.4,15.9z   "></path>
	<path class="st1" d="M15.9,27.5c-2.4,0-4.4,2-4.4,4.4v5.8c0,2.4,1.9,4.3,4.4,4.3s4.4-2,4.4-4.3v-5.8C20.2,29.4,18.3,27.5,15.9,27.5   z"></path>
	<path class="st1" d="M5.8,47.8h46.3c1.6,0,2.9,1.3,2.9,2.9c0,1.6-1.3,2.9-2.9,2.9H2.9c-1.6,0-2.9-1.3-2.9-2.9V4.3   c0-1.6,1.3-2.9,2.9-2.9s2.9,1.3,2.9,2.9C5.8,4.3,5.8,47.8,5.8,47.8z"></path>
</g>
</svg>
