<?xml version="1.0" encoding="UTF-8"?>
<!-- Generator: Adobe Illustrator 22.1.0, SVG Export Plug-In . SVG Version: 6.00 Build 0)  -->
<svg xmlns="http://www.w3.org/2000/svg" xmlns:xlink="http://www.w3.org/1999/xlink" id="Layer_1" x="0px" y="0px" viewBox="0 0 259 55" style="enable-background:new 0 0 259 55;" xml:space="preserve">
<style type="text/css">
	.st0{fill:#FFFFFF;}
	.st1{fill:url(#SVGID_1_);}
</style>
<g>
	<path class="st0" d="M10.2,41.3H3.4c-1.9,0-3.4,1.5-3.4,3.4v6.9C0,53.5,1.5,55,3.4,55h6.9c1.9,0,3.4-1.5,3.4-3.4v-6.9   C13.7,42.8,12.1,41.3,10.2,41.3z"></path>
	<path class="st0" d="M10.2,20.6H3.4C1.5,20.6,0,22.1,0,24v7c0,1.9,1.5,3.4,3.4,3.4h6.9c1.9,0,3.4-1.5,3.4-3.4v-6.9   C13.7,22.2,12.1,20.6,10.2,20.6z"></path>
	
		<linearGradient id="SVGID_1_" gradientUnits="userSpaceOnUse" x1="17.15" y1="0.9" x2="17.15" y2="-54.1" gradientTransform="matrix(1 0 0 -1 0 1)">
		<stop offset="0" style="stop-color:#03EADA"></stop>
		<stop offset="1" style="stop-color:#3238B0"></stop>
	</linearGradient>
	<path class="st1" d="M34.3,44.7v6.9c0,1.9-1.5,3.4-3.4,3.4H24c-1.9,0-3.4-1.5-3.4-3.4v-6.9c0-1.9,1.5-3.4,3.4-3.4h6.9   C32.8,41.3,34.3,42.8,34.3,44.7z M30.9,20.6H24c-1.9,0-3.4,1.5-3.4,3.4v7c0,1.9,1.5,3.4,3.4,3.4h6.9c1.9,0,3.4-1.5,3.4-3.4v-6.9   C34.3,22.2,32.8,20.6,30.9,20.6z M10.2,0.1H3.4C1.5,0.1,0,1.6,0,3.5v6.9c0,1.9,1.5,3.4,3.4,3.4h6.9c1.9,0,3.4-1.5,3.4-3.4V3.5   C13.7,1.6,12.1,0.1,10.2,0.1z"></path>
	<path class="st0" d="M51.5,41.3h-6.8c-1.9,0-3.4,1.5-3.4,3.4v6.9c0,1.9,1.5,3.4,3.4,3.4h6.9c1.9,0,3.4-1.5,3.4-3.4v-6.9   C54.9,42.8,53.4,41.3,51.5,41.3z"></path>
</g>
</svg>
