<?xml version="1.0" encoding="UTF-8"?>
<!-- Generator: Adobe Illustrator 22.1.0, SVG Export Plug-In . SVG Version: 6.00 Build 0)  -->
<svg xmlns="http://www.w3.org/2000/svg" xmlns:xlink="http://www.w3.org/1999/xlink" id="Layer_1" x="0px" y="0px" viewBox="0 0 259 55" style="enable-background:new 0 0 259 55;" xml:space="preserve">
<style type="text/css">
	.st0{fill:#121118;}
	.st1{fill:url(#SVGID_1_);}
</style>
<g>
	<path class="st0" d="M27.5,8.1c6.2,0,12,2.1,16.8,5.7l-3.8,3.1c-3.8-2.6-8.2-4.1-13-4.1c-6.1,0-11.9,2.4-16.1,6.7   c-4.2,4.2-6.6,10-6.6,16c0,2.8,0.5,5.5,1.5,8.1c0.4,1.2-0.2,2.6-1.3,3s-2.6-0.2-3-1.3c-1.4-3-2-6.3-2-9.7c0-7.4,3-14.3,8.1-19.5   C13.1,11,20.1,8.1,27.5,8.1z M55,35.6c0,3.4-0.6,6.7-1.8,9.8c-0.5,1.2-1.8,1.8-3,1.3s-1.8-1.8-1.3-3c1-2.5,1.5-5.2,1.5-8.1   c0-4.9-1.5-9.4-4.2-13.2l2.8-4C52.8,23.1,55,29.2,55,35.6z"></path>
	<g>
		<path class="st0" d="M27.5,25c-1.3,0-2.4-1-2.4-2.4V19c0-1.3,1-2.4,2.4-2.4c1.3,0,2.4,1,2.4,2.4v3.6C29.9,24,28.8,25,27.5,25z"></path>
		<path class="st0" d="M13.8,38.8h-3.6c-1.3,0-2.3-1-2.3-2.3s1-2.3,2.3-2.3h3.6c1.3,0,2.4,1,2.4,2.3S15.1,38.8,13.8,38.8z"></path>
		<path class="st0" d="M44.9,38.8h-3.7c-1.3,0-2.3-1-2.3-2.3s1-2.3,2.3-2.3h3.7c1.3,0,2.3,1,2.3,2.3C47.3,37.7,46.2,38.8,44.9,38.8z    "></path>
	</g>
	<g>
		<path class="st0" d="M17.8,29.1c-0.6,0-1.2-0.2-1.6-0.7l-2.6-2.6c-0.9-0.9-0.9-2.4,0-3.4c0.9-0.9,2.4-0.9,3.4,0l2.6,2.6    c0.9,0.9,0.9,2.4,0,3.4C19,28.8,18.4,29.1,17.8,29.1z"></path>
	</g>
	
		<linearGradient id="SVGID_1_" gradientUnits="userSpaceOnUse" x1="23.5405" y1="-26.8" x2="47.5034" y2="-26.8" gradientTransform="matrix(1 0 0 -1 0 1)">
		<stop offset="0" style="stop-color:#0D52FF"></stop>
		<stop offset="1" style="stop-color:#4100A3"></stop>
	</linearGradient>
	<path class="st1" d="M25,39.4c0.9,0.8,2,1.2,3,1.2c1.2,0,2.4-0.5,3.3-1.5c0.2-0.3,0.5-0.6,0.6-0.9l15.4-21.9   c0.4-0.6-0.1-1.3-0.7-1.3c-0.2,0-0.3,0.1-0.5,0.2l-20.6,17c-0.3,0.2-0.6,0.4-0.9,0.7l0,0C23,34.8,23.1,37.7,25,39.4z"></path>
</g>
</svg>
