<?xml version="1.0" encoding="UTF-8"?>
<svg xmlns="http://www.w3.org/2000/svg" xmlns:xlink="http://www.w3.org/1999/xlink" width="140px" height="17px" viewBox="0 0 140 17">
  <!-- Generator: Sketch 61.2 (89653) - https://sketch.com -->
  <title>Woolrich-Black</title>
  <desc>Created with Sketch.</desc>
  <g id="Page-1" stroke="none" stroke-width="1" fill="none" fill-rule="evenodd">
    <g id="Desktop-HD" transform="translate(-380.000000, -2854.000000)" fill="#121118">
      <path d="M481.989655,2870.3821 L481.989655,2865.99072 C481.989655,2862.15306 481.988582,2858.31537 481.993029,2854.47772 C481.993258,2854.2929 481.953582,2854.22771 481.750367,2854.2303 C480.811539,2854.24275 479.872404,2854.23576 478.933308,2854.23592 C478.683018,2854.23596 478.682634,2854.23626 478.682634,2854.4881 C478.682586,2859.80226 478.682586,2865.11645 478.682586,2870.43064 L478.682586,2870.64391 L481.989655,2870.64391 L481.989655,2870.3821 Z M447.320411,2867.16675 C447.320411,2862.96673 447.320449,2858.76666 447.320334,2854.56659 C447.320334,2854.31765 447.319912,2854.31735 447.070504,2854.31735 C446.150728,2854.31735 445.230953,2854.31735 444.311139,2854.31735 C444.034244,2854.31735 444.029855,2854.32181 444.029855,2854.5942 C444.029855,2859.84427 444.029855,2865.09433 444.029855,2870.3444 C444.029855,2870.59311 444.030219,2870.59391 444.284765,2870.59395 C445.600581,2870.59414 446.916358,2870.59414 448.232174,2870.59414 C451.080975,2870.59414 453.929775,2870.59414 456.778576,2870.59414 C457.040635,2870.59414 457.040913,2870.59326 457.040913,2870.32912 C457.040913,2869.47001 457.040913,2868.6109 457.040913,2867.75183 C457.040913,2867.45068 457.040674,2867.45057 456.748061,2867.45057 C453.701221,2867.45053 450.654458,2867.45057 447.607656,2867.45057 L447.320411,2867.45057 L447.320411,2867.16675 Z M469.625608,2857.52142 C470.258291,2857.54399 470.78701,2857.82375 471.055356,2858.44316 C471.118686,2858.58929 471.157442,2858.75887 471.156025,2858.91718 C471.153072,2859.23693 471.13931,2859.5605 471.085257,2859.87482 C471.013417,2860.29219 470.724217,2860.55519 470.348647,2860.71873 C469.98776,2860.8759 469.600843,2860.94212 469.210246,2860.94354 C467.28149,2860.95045 465.352733,2860.9459 463.423976,2860.95129 C463.261627,2860.95175 463.206539,2860.88048 463.206386,2860.74001 C463.205274,2859.7156 463.206539,2858.69115 463.20489,2857.66674 C463.204622,2857.51382 463.293866,2857.49678 463.418379,2857.49709 C464.459409,2857.49972 465.500438,2857.49858 466.541429,2857.49858 C466.541429,2857.50289 466.541468,2857.50721 466.541468,2857.51153 C467.569655,2857.51153 468.598724,2857.48472 469.625608,2857.52142 L469.625608,2857.52142 Z M471.516605,2863.63246 C472.290131,2863.31947 472.939797,2862.84802 473.477103,2862.20421 C474.069343,2861.49466 474.409261,2860.67978 474.515909,2859.78098 C474.608604,2859.00002 474.549222,2858.21359 474.291917,2857.46069 C474.017974,2856.65914 473.552968,2855.98274 472.883253,2855.45186 C472.227798,2854.93221 471.470219,2854.63033 470.660811,2854.47245 C470.177903,2854.3783 469.679047,2854.32613 469.187054,2854.32399 C466.191314,2854.31081 463.19546,2854.31964 460.199721,2854.31245 C459.999113,2854.312 459.955334,2854.37097 459.955487,2854.55907 C459.960011,2859.82838 459.959091,2865.09773 459.959091,2870.36701 L459.959091,2870.5941 L460.207196,2870.5941 C461.120608,2870.5941 462.03402,2870.59422 462.94747,2870.59403 C463.205005,2870.59399 463.20535,2870.59361 463.205389,2870.33565 C463.205504,2868.35012 463.205274,2866.36459 463.205696,2864.37902 C463.205734,2864.11855 463.231725,2864.09322 463.486692,2864.09322 C464.860011,2864.09307 466.233368,2864.09586 467.606725,2864.08963 C467.772486,2864.08891 467.864721,2864.13928 467.946681,2864.28617 C468.432426,2865.15674 468.92672,2866.02253 469.423275,2866.88707 C470.099162,2868.06379 470.782908,2869.236 471.453543,2870.41563 C471.531019,2870.55182 471.612136,2870.59739 471.761375,2870.59671 C472.847295,2870.59181 473.933176,2870.59437 475.019096,2870.59338 C475.084151,2870.59334 475.149244,2870.58341 475.236917,2870.57623 C473.929074,2868.27969 472.637793,2866.01215 471.34402,2863.74028 C471.413406,2863.69625 471.461134,2863.65492 471.516605,2863.63246 L471.516605,2863.63246 Z M493.625411,2854 C493.596506,2854.02143 493.569863,2854.05721 493.538428,2854.06195 C493.332377,2854.09292 493.125559,2854.1192 492.918549,2854.14334 C492.324584,2854.21258 491.76167,2854.39113 491.204967,2854.60238 C490.389157,2854.91193 489.65385,2855.35069 488.983291,2855.90483 C488.237136,2856.52153 487.641062,2857.25667 487.168543,2858.09958 C486.731906,2858.87837 486.406594,2859.69578 486.26276,2860.57631 C486.170526,2861.14088 486.086955,2861.70976 486.052952,2862.27987 C486.027842,2862.70079 486.075225,2863.12813 486.115898,2863.5502 C486.151435,2863.91899 486.193182,2864.29194 486.285531,2864.64939 C486.404715,2865.11087 486.561506,2865.56453 486.729989,2866.01112 C486.969852,2866.64672 487.31437,2867.22832 487.722333,2867.77223 C488.174343,2868.37491 488.703636,2868.90056 489.305575,2869.35475 C490.52747,2870.27661 491.918614,2870.79126 493.4281,2870.93719 C494.374173,2871.0287 495.336961,2871.04593 496.276402,2870.81058 C496.740641,2870.69425 497.20649,2870.57703 497.659189,2870.4238 C498.558609,2870.11921 499.342908,2869.61175 500.0569,2868.99421 C500.980088,2868.19575 501.625805,2867.19158 502.180246,2866.12226 C502.195159,2866.09346 502.155674,2866.01287 502.119447,2865.98518 C501.655745,2865.63121 501.189781,2865.28014 500.720674,2864.93331 C500.335635,2864.64859 499.945728,2864.3705 499.560383,2864.0912 C499.469299,2864.25577 499.378828,2864.40537 499.301429,2864.56139 C498.867667,2865.43509 498.316062,2866.21804 497.533028,2866.81767 C496.712273,2867.44621 495.773905,2867.77089 494.745219,2867.81825 C494.399053,2867.83417 494.046139,2867.80362 493.702694,2867.75195 C493.332913,2867.6963 492.95535,2867.63106 492.608187,2867.49934 C491.726287,2867.16469 490.998187,2866.6133 490.432667,2865.85135 C489.841577,2865.055 489.521325,2864.15089 489.425871,2863.18141 C489.3492,2862.40201 489.394704,2861.62089 489.621572,2860.85298 C489.806041,2860.22849 490.0658,2859.64887 490.453751,2859.13037 C491.271019,2858.03813 492.379441,2857.40436 493.721019,2857.23054 C494.273505,2857.15897 494.848801,2857.23952 495.411867,2857.27832 C495.934529,2857.31434 496.41667,2857.51015 496.876884,2857.74763 C497.699135,2858.17192 498.334195,2858.79053 498.767191,2859.61019 C498.897338,2859.85649 499.030898,2860.10096 499.167831,2860.35544 C499.254047,2860.29254 499.317377,2860.24499 499.38201,2860.19927 C499.824551,2859.88636 500.268165,2859.5749 500.70994,2859.26087 C501.080641,2858.99742 501.451533,2858.73404 501.815986,2858.46215 C501.858039,2858.43079 501.896183,2858.3195 501.87437,2858.28879 C501.49121,2857.74874 501.119973,2857.19796 500.701506,2856.68572 C500.28902,2856.18074 499.7723,2855.78021 499.231391,2855.4126 C498.499535,2854.91525 497.703543,2854.55112 496.853614,2854.32185 C496.376035,2854.19303 495.875263,2854.15006 495.385531,2854.06478 C495.333357,2854.05565 495.2854,2854.02219 495.235487,2854 L493.625411,2854 Z M520,2854.30554 C519.923751,2854.30951 519.847503,2854.31681 519.771292,2854.31689 C518.825717,2854.31769 517.880066,2854.32258 516.934606,2854.31307 C516.745115,2854.31116 516.701605,2854.37093 516.702218,2854.55086 C516.708428,2856.35218 516.706013,2858.15355 516.706013,2859.95491 L516.706013,2860.18113 L509.406692,2860.18113 L509.406692,2859.94682 C509.406692,2858.15821 509.406807,2856.36956 509.406539,2854.58095 C509.406501,2854.33587 509.388598,2854.31765 509.147087,2854.31754 C508.207913,2854.31723 507.26874,2854.31727 506.329567,2854.3175 C506.080465,2854.31757 506.062141,2854.33621 506.061992,2854.59524 C506.061992,2859.84652 506.061992,2865.09789 506.062141,2870.34917 C506.062141,2870.58742 506.068582,2870.59384 506.311588,2870.59395 C507.250723,2870.59422 508.189934,2870.59422 509.129107,2870.59403 C509.406462,2870.59399 509.406654,2870.59361 509.406654,2870.32515 C509.406692,2868.07185 509.408839,2865.81855 509.402897,2863.56528 C509.40236,2863.37405 509.452963,2863.32085 509.649699,2863.3215 C511.924162,2863.32906 514.198625,2863.32631 516.473089,2863.32631 L516.703636,2863.32631 L516.703636,2870.56722 C516.74684,2870.57951 516.764858,2870.5891 516.782837,2870.5891 C517.843302,2870.5896 518.903729,2870.58929 519.964157,2870.58841 C519.976079,2870.58841 519.988039,2870.58016 520,2870.57569 L520,2854.30554 Z M413.092558,2857.29807 C414.194157,2857.5606 415.126276,2858.10409 415.838467,2859.00746 C416.222585,2859.49465 416.51328,2860.02866 416.702004,2860.60832 C416.834529,2861.01541 416.8808,2861.45108 416.956281,2861.87563 C416.98718,2862.04945 417.016353,2862.22892 417.006347,2862.40357 C416.984343,2862.78722 416.948538,2863.17098 416.895674,2863.55157 C416.860597,2863.80387 416.795964,2864.05343 416.727536,2864.29946 C416.553647,2864.92468 416.24965,2865.48505 415.850312,2865.99576 C415.361117,2866.62136 414.745033,2867.08754 414.018965,2867.40122 C413.735285,2867.52378 413.426955,2867.58989 413.129628,2867.68091 C412.643116,2867.82986 412.141769,2867.85102 411.640805,2867.82046 C410.702744,2867.76314 409.831884,2867.4951 409.04885,2866.96036 C408.192519,2866.37563 407.607371,2865.57923 407.238395,2864.62865 C407.037059,2864.10999 406.945476,2863.56131 406.887437,2863.00114 C406.84017,2862.54477 406.87793,2862.09921 406.925811,2861.65717 C406.989332,2861.07064 407.165329,2860.50615 407.426966,2859.96725 C407.726747,2859.34982 408.120411,2858.80733 408.639392,2858.36315 C409.141889,2857.93302 409.712087,2857.62038 410.351594,2857.42059 C410.872607,2857.25777 411.396763,2857.18223 411.941468,2857.16783 C412.325778,2857.2087 412.719748,2857.20919 413.092558,2857.29807 L413.092558,2857.29807 Z M411.128149,2854 C411.079233,2854.02234 411.032311,2854.05656 410.981095,2854.06504 C410.645624,2854.12065 410.30241,2854.14433 409.974682,2854.22851 C409.44489,2854.36459 408.90425,2854.4915 408.405126,2854.70722 C407.226473,2855.21659 406.218143,2855.96636 405.403061,2856.96919 C404.676572,2857.86302 404.169474,2858.8684 403.86241,2859.96805 C403.712903,2860.50348 403.609359,2861.0596 403.56029,2861.61302 C403.489677,2862.40987 403.494545,2863.21654 403.63512,2864.00614 C403.735022,2864.5672 403.908719,2865.11679 404.073368,2865.6644 C404.242886,2866.2282 404.522924,2866.74308 404.834934,2867.24222 C405.276517,2867.94875 405.811829,2868.57263 406.454288,2869.10348 C407.086281,2869.62569 407.77965,2870.05238 408.546966,2870.34444 C408.958341,2870.50099 409.383784,2870.62684 409.811106,2870.73416 C410.194765,2870.83048 410.587317,2870.92508 410.979945,2870.94601 C412.135022,2871.0075 413.291632,2871.01942 414.411594,2870.65487 C414.817793,2870.52264 415.237295,2870.41089 415.616928,2870.22218 C416.140279,2869.96209 416.652667,2869.66785 417.131358,2869.3337 C417.742996,2868.90678 418.260597,2868.36788 418.7031,2867.76707 C419.131073,2867.18593 419.47356,2866.55681 419.742826,2865.88401 C419.970958,2865.3139 420.131353,2864.72707 420.237158,2864.12786 C420.308308,2863.72462 420.322108,2863.30958 420.338478,2862.89893 C420.370641,2862.09329 420.355805,2861.28525 420.161292,2860.49996 C420.026391,2859.95522 419.836939,2859.42155 419.639014,2858.89522 C419.365225,2858.16734 418.9481,2857.51431 418.450203,2856.92114 C417.788269,2856.13242 417.002245,2855.48372 416.08822,2854.99756 C415.453083,2854.65978 414.780416,2854.41206 414.083138,2854.24401 C413.698598,2854.15132 413.297766,2854.12627 412.904984,2854.06607 C412.847366,2854.05725 412.793735,2854.02269 412.738226,2854 L411.128149,2854 Z M434.637108,2858.15424 C435.344929,2858.67935 435.871309,2859.36365 436.206703,2860.18736 C436.400794,2860.66408 436.563488,2861.14718 436.592815,2861.66427 C436.619304,2862.13145 436.680717,2862.6029 436.644414,2863.06606 C436.573149,2863.97414 436.302273,2864.83214 435.803417,2865.60463 C435.27397,2866.42455 434.551353,2867.03144 433.658067,2867.41959 C433.253094,2867.59555 432.827152,2867.73514 432.375334,2867.75764 C431.995471,2867.77658 431.613308,2867.8391 431.236703,2867.81443 C430.373472,2867.75783 429.56345,2867.5111 428.829715,2867.03633 C427.949348,2866.46672 427.334491,2865.67945 426.942399,2864.72276 C426.765674,2864.29156 426.628855,2863.83962 426.606429,2863.36523 C426.585268,2862.91688 426.517683,2862.46483 426.55276,2862.02084 C426.632191,2861.01477 426.928253,2860.07488 427.522755,2859.23605 C428.070564,2858.46314 428.782793,2857.90216 429.649819,2857.54143 C429.957727,2857.41337 430.294885,2857.34508 430.625027,2857.28287 C430.947196,2857.22214 431.277492,2857.204 431.604261,2857.16705 C432.730433,2857.16069 433.745279,2857.49254 434.637108,2858.15424 L434.637108,2858.15424 Z M430.75575,2854 C430.71477,2854.02261 430.674825,2854.06256 430.632579,2854.06512 C429.994491,2854.10423 429.372848,2854.22988 428.777426,2854.45633 C428.288461,2854.64233 427.796199,2854.83268 427.335832,2855.07784 C426.235652,2855.66368 425.350033,2856.50026 424.651336,2857.52577 C423.86374,2858.68176 423.426643,2859.97512 423.259463,2861.3527 C423.19437,2861.88892 423.229064,2862.43768 423.226993,2862.98078 C423.224655,2863.58278 423.306041,2864.17522 423.46862,2864.75514 C423.574195,2865.13184 423.662404,2865.51667 423.806966,2865.87862 C424.116676,2866.65417 424.527514,2867.37361 425.062251,2868.02434 C425.790772,2868.91091 426.65454,2869.62645 427.69511,2870.11066 C428.171041,2870.33206 428.672618,2870.50867 429.177108,2870.65613 C429.633335,2870.78942 430.105931,2870.91046 430.577377,2870.93948 C431.522032,2870.99765 432.473664,2871.03989 433.407892,2870.81031 C433.8323,2870.70601 434.267097,2870.62748 434.675559,2870.47842 C435.483357,2870.18368 436.236566,2869.78201 436.914677,2869.24269 C437.798302,2868.5399 438.51195,2867.70176 439.034458,2866.70302 C439.398527,2866.00718 439.680789,2865.28125 439.811818,2864.50437 C439.892245,2864.02734 439.990077,2863.54955 440.019556,2863.06843 C440.072612,2862.20149 440.030252,2861.33429 439.805838,2860.48912 C439.672393,2859.98661 439.521774,2859.4869 439.345701,2858.99776 C439.069995,2858.23173 438.626687,2857.55835 438.116254,2856.92733 C437.472607,2856.13166 436.686813,2855.50136 435.788658,2855.02128 C435.355701,2854.78983 434.884715,2854.62464 434.421473,2854.45518 C434.094513,2854.3356 433.75494,2854.24421 433.414639,2854.16862 C433.162623,2854.11263 432.899912,2854.10557 432.64299,2854.06951 C432.574255,2854.05989 432.509239,2854.02391 432.442497,2854 L430.75575,2854 Z M380,2854.30554 C380.452968,2854.30951 380.905936,2854.3154 381.358943,2854.31692 C381.953061,2854.31891 382.547218,2854.31864 383.141375,2854.31643 C383.267267,2854.31597 383.344628,2854.33957 383.387333,2854.48619 C383.525991,2854.96257 383.684737,2855.43322 383.840378,2855.90456 C384.007327,2856.4102 384.183631,2856.91282 384.348127,2857.41929 C384.489929,2857.85595 384.616742,2858.29746 384.757777,2858.73439 C384.898697,2859.17104 385.052689,2859.6035 385.194184,2860.03997 C385.308883,2860.39379 385.409091,2860.75223 385.523866,2861.10601 C385.6654,2861.54236 385.818587,2861.97497 385.960581,2862.41117 C386.073823,2862.75899 386.178018,2863.10972 386.285931,2863.45926 C386.342897,2863.64377 386.396796,2863.82931 386.458401,2864.01225 C386.467486,2864.03929 386.511457,2864.05469 386.552744,2864.08558 C386.672196,2863.72325 386.78701,2863.37867 386.89937,2863.03326 C387.013111,2862.68372 387.123094,2862.33291 387.237103,2861.98345 C387.35437,2861.62406 387.473516,2861.26527 387.593697,2860.90683 C387.735192,2860.48488 387.880559,2860.06422 388.020674,2859.64181 C388.135717,2859.29494 388.244628,2858.94601 388.357946,2858.59853 C388.498675,2858.16692 388.641166,2857.73587 388.78293,2857.3046 C388.897245,2856.95697 389.010411,2856.60892 389.12626,2856.26178 C389.26902,2855.83387 389.41431,2855.40676 389.557952,2854.97911 C389.61718,2854.80274 389.66552,2854.62189 389.738395,2854.45136 C389.763083,2854.39362 389.847574,2854.3238 389.905422,2854.32323 C390.703943,2854.31482 391.502579,2854.31838 392.301139,2854.31708 C392.547136,2854.3167 392.513171,2854.5384 392.562623,2854.66845 C392.729841,2855.1079 392.872103,2855.55693 393.017968,2856.00425 C393.156243,2856.4283 393.282404,2856.85633 393.422442,2857.27981 C393.562136,2857.70234 393.716703,2858.12001 393.856818,2858.54239 C393.997355,2858.96591 394.125088,2859.39363 394.263976,2859.81769 C394.403439,2860.24369 394.551106,2860.66706 394.69264,2861.09241 C394.806342,2861.43401 394.914524,2861.77748 395.028341,2862.11904 C395.170909,2862.54699 395.318499,2862.97337 395.460416,2863.40155 C395.532448,2863.61894 395.596813,2863.83894 395.684025,2864.12034 C395.754064,2863.96325 395.813445,2863.85643 395.850361,2863.74238 C395.965214,2863.38723 396.068028,2863.02829 396.182152,2862.67291 C396.295586,2862.31978 396.419332,2861.96993 396.534337,2861.61726 C396.648116,2861.26852 396.754995,2860.91753 396.867892,2860.56848 C396.985887,2860.20363 397.109326,2859.84053 397.227015,2859.47556 C397.339606,2859.12647 397.445832,2858.77537 397.558653,2858.42636 C397.67661,2858.06139 397.800854,2857.69844 397.91908,2857.33355 C398.030214,2856.99058 398.135405,2856.64569 398.246309,2856.30268 C398.36626,2855.93176 398.490235,2855.56216 398.611681,2855.19173 C398.692913,2854.94405 398.780471,2854.69797 398.849513,2854.44689 C398.877459,2854.34526 398.922349,2854.31589 399.020602,2854.31612 C400.010838,2854.31838 401.001073,2854.31715 401.991347,2854.31796 C402.098724,2854.31803 402.164085,2854.30829 402.103554,2854.47615 C401.920811,2854.98297 401.779929,2855.50461 401.613401,2856.01746 C401.446796,2856.53058 401.263823,2857.03843 401.097563,2857.55163 C400.931112,2858.06536 400.781911,2858.58467 400.615077,2859.09829 C400.450619,2859.60469 400.268834,2860.10551 400.103341,2860.6116 C399.962382,2861.04276 399.838215,2861.47938 399.69833,2861.91096 C399.559096,2862.34055 399.405679,2862.76556 399.265564,2863.19489 C399.124874,2863.6262 398.995915,2864.06129 398.85626,2864.49295 C398.742021,2864.84597 398.61701,2865.19551 398.501698,2865.54822 C398.387996,2865.89589 398.282459,2866.24627 398.169754,2866.59432 C398.053023,2866.95475 397.930312,2867.31319 397.813275,2867.67354 C397.700378,2868.02113 397.592503,2868.37033 397.480257,2868.71815 C397.36391,2869.07876 397.244803,2869.43854 397.127152,2869.79878 C397.065586,2869.9873 396.989682,2870.17284 396.947667,2870.3656 C396.909907,2870.53892 396.831473,2870.60071 396.651643,2870.59794 C396.03207,2870.58811 395.412267,2870.59414 394.792579,2870.5941 C394.440241,2870.5941 394.447333,2870.59189 394.343483,2870.25908 C394.199189,2869.79675 394.040329,2869.33897 393.892623,2868.8776 C393.754693,2868.44679 393.627766,2868.01242 393.487497,2867.58233 C393.349146,2867.15789 393.196035,2866.73819 393.056993,2866.31391 C392.915958,2865.88363 392.788571,2865.44884 392.647114,2865.01867 C392.506156,2864.58996 392.350246,2864.16613 392.209863,2863.73723 C392.068675,2863.30584 391.94351,2862.86922 391.802207,2862.43787 C391.661479,2862.00828 391.506758,2861.58327 391.363384,2861.15455 C391.273488,2860.88564 391.193215,2860.61355 391.06345,2860.3412 C390.979765,2860.58941 390.89512,2860.83736 390.812623,2861.08599 C390.691637,2861.45051 390.570767,2861.81502 390.452541,2862.18041 C390.340027,2862.52835 390.232382,2862.87785 390.120022,2863.22579 C390.003445,2863.58667 389.882842,2863.94626 389.765613,2864.30695 C389.652716,2864.65431 389.541774,2865.00233 389.430104,2865.35007 C389.316325,2865.70446 389.204272,2866.05939 389.088499,2866.41317 C388.974759,2866.76092 388.85684,2867.10733 388.741566,2867.45461 C388.620811,2867.81832 388.49925,2868.18188 388.381331,2868.54651 C388.26828,2868.89613 388.161134,2869.24758 388.048275,2869.59719 C387.949409,2869.9035 387.849315,2870.20946 387.740942,2870.51245 C387.727755,2870.54927 387.659901,2870.58933 387.617158,2870.58964 C386.888866,2870.59445 386.160537,2870.59319 385.432245,2870.5933 C385.347103,2870.5933 385.309419,2870.56466 385.280246,2870.46914 C385.111495,2869.91706 384.92971,2869.36888 384.747158,2868.82104 C384.57902,2868.31647 384.399304,2867.81569 384.234003,2867.31021 C384.06782,2866.8022 383.917662,2866.28897 383.752015,2865.78074 C383.612169,2865.35175 383.455263,2864.92827 383.31511,2864.49937 C383.174151,2864.06794 383.049447,2863.63128 382.908719,2863.19978 C382.76868,2862.77045 382.613538,2862.34602 382.472426,2861.91699 C382.333078,2861.49313 382.206687,2861.06507 382.067875,2860.64105 C381.924962,2860.20454 381.770164,2859.77193 381.627558,2859.33535 C381.489014,2858.91114 381.362125,2858.48319 381.224962,2858.05852 C381.11264,2857.71063 380.990657,2857.36582 380.87684,2857.01838 C380.7608,2856.6641 380.651621,2856.30761 380.535504,2855.95333 C380.419962,2855.60085 380.298516,2855.25028 380.181939,2854.8981 C380.142913,2854.7802 380.114162,2854.65883 380.073565,2854.5415 C380.062371,2854.50919 380.025263,2854.48581 380,2854.45831 L380,2854.30554 Z" id="Woolrich-Black"></path>
    </g>
  </g>
</svg>
